<?xml version="1.0" encoding="UTF-8"?><svg id="Layer_1" xmlns="http://www.w3.org/2000/svg" viewBox="0 0 1080 1080"><defs><style>.cls-1{stroke-width:0px;}</style></defs><path class="cls-1" d="m807.96,288.08l-124.02-109.98-387.86,18.82-102.2,121.89-108.1,51.8L0,681.33l102.18,49.24,238.07,171.33,407.21-126.01,278.88-3.29,53.66-306.64-272.04-177.89ZM29.7,658.18l77.95-276.32,80.55-36.26-79.37,347.98-79.13-35.4Zm687.4,82.05l-364.84,100.67-226.06-136.92,81.86-369.32,92.92-113.17,375.02-17.73,93.49,107.16-52.38,429.31Zm275.25-6.17l-219.94,1.65,45.06-408.7,228.51,146.1-53.63,260.95Z"/><polygon class="cls-1" points="848.16 400.14 1003.48 489.84 961.09 696.34 811.26 693.09 848.16 400.14"/><polygon class="cls-1" points="119.12 400.34 161.39 383.35 92.43 660.33 54.32 645.08 119.12 400.34"/><path class="cls-1" d="m353.76,817.44l-204.9-123.73,74.09-338.71,91.16-103.64,143.52-6.78-50.85,267.63-32.8,26.23,20.75,37.81-40.96,241.18Zm30.42-496.58l-54.19,3.34-46.81,46.95-19.92,99.44,87.25,19.24,33.67-168.98Zm-83.7,386.03l29.51-142.87-81.6-23-26.01,122.16,78.11,43.7Z"/><polygon class="cls-1" points="503.21 628.05 560.46 535.01 615.45 610.43 656.14 238.56 744.66 334.99 692.72 727.7 589.75 757.31 560.46 701.13 520.87 778.19 375.94 818.17 473.86 243.68 558.2 238.56 503.21 628.05"/></svg>