<?xml version="1.0" encoding="UTF-8"?><svg id="Layer_1" xmlns="http://www.w3.org/2000/svg" viewBox="0 0 16 16"><defs><style>.cls-1{stroke-width:0px;}</style></defs><path class="cls-1" d="m11.97,4.27l-1.84-1.63-5.75.28-1.51,1.81-1.6.77-1.27,4.6,1.51.73,3.53,2.54,6.03-1.87,4.13-.05.79-4.54-4.03-2.64ZM.44,9.75l1.15-4.09,1.19-.54-1.18,5.16-1.17-.52Zm10.18,1.22l-5.41,1.49-3.35-2.03,1.21-5.47,1.38-1.68,5.56-.26,1.39,1.59-.78,6.36Zm4.08-.09l-3.26.02.67-6.05,3.39,2.16-.79,3.87Z"/><polygon class="cls-1" points="12.57 5.93 14.87 7.26 14.24 10.32 12.02 10.27 12.57 5.93"/><polygon class="cls-1" points="1.76 5.93 2.39 5.68 1.37 9.78 .8 9.56 1.76 5.93"/><path class="cls-1" d="m5.24,12.11l-3.04-1.83,1.1-5.02,1.35-1.54,2.13-.1-.75,3.96-.49.39.31.56-.61,3.57Zm.45-7.36l-.8.05-.69.7-.3,1.47,1.29.29.5-2.5Zm-1.24,5.72l.44-2.12-1.21-.34-.39,1.81,1.16.65Z"/><polygon class="cls-1" points="7.45 9.3 8.3 7.93 9.12 9.04 9.72 3.53 11.03 4.96 10.26 10.78 8.74 11.22 8.3 10.39 7.72 11.53 5.57 12.12 7.02 3.61 8.27 3.53 7.45 9.3"/></svg>