<?xml version="1.0" encoding="UTF-8"?><svg id="Layer_1" xmlns="http://www.w3.org/2000/svg" viewBox="0 0 1080 1080"><defs><style>.cls-1{letter-spacing:-.02em;}.cls-2{letter-spacing:-.07em;}.cls-3{letter-spacing:0em;}.cls-4{letter-spacing:-.02em;}.cls-5{font-family:Abolition-Oblique, Abolition;font-size:296.27px;font-style:oblique;}.cls-6{stroke-width:0px;}.cls-7{letter-spacing:-.01em;}.cls-8{letter-spacing:-.01em;}</style></defs><text class="cls-5" transform="translate(13.79 1010.99)"><tspan class="cls-3" x="0" y="0">Be</tspan><tspan class="cls-2" x="181.61" y="0">l</tspan><tspan class="cls-1" x="239.67" y="0">t </tspan><tspan class="cls-7" x="362.92" y="0">Wr</tspan><tspan class="cls-4" x="632.52" y="0">e</tspan><tspan class="cls-8" x="713.7" y="0">s</tspan><tspan class="cls-7" x="804.35" y="0">tle</tspan></text><path class="cls-6" d="m792.26,142.61l-118.49-105.08-370.56,17.98-97.64,116.45-103.28,49.49L20.33,518.33l97.62,47.05,227.46,163.69,389.05-120.39,266.45-3.14,51.27-292.96-259.91-169.96ZM48.71,496.21L123.18,232.21l76.96-34.64-75.83,332.46-75.6-33.82Zm656.75,78.4l-348.57,96.18-215.98-130.81,78.21-352.85,88.77-108.13,358.3-16.94,89.32,102.39-50.05,410.17Zm262.98-5.89l-210.13,1.58,43.05-390.47,218.32,139.58-51.24,249.31Z"/><polygon class="cls-6" points="830.68 249.68 979.07 335.38 938.57 532.68 795.42 529.57 830.68 249.68"/><polygon class="cls-6" points="134.14 249.87 174.53 233.64 108.64 498.27 72.23 483.7 134.14 249.87"/><path class="cls-6" d="m358.31,648.37l-195.76-118.21,70.79-323.61,87.1-99.01,137.12-6.48-48.59,255.7-31.34,25.06,19.82,36.12-39.14,230.43Zm29.06-474.44l-51.77,3.19-44.72,44.86-19.03,95.01,83.36,18.39,32.17-161.44Zm-79.97,368.82l28.19-136.5-77.97-21.97-24.85,116.72,74.63,41.76Z"/><polygon class="cls-6" points="501.1 467.43 555.8 378.53 608.34 450.59 647.22 95.3 731.79 187.43 682.16 562.63 583.79 590.92 555.8 537.25 517.98 610.87 379.51 649.07 473.06 100.19 553.65 95.3 501.1 467.43"/></svg>