<svg width="108" height="82" viewBox="0 0 108 82" fill="none" xmlns="http://www.w3.org/2000/svg">
<g filter="url(#filter0_d_353_4498)">
<rect x="20" y="14" width="68" height="48" rx="15.875" fill="white"/>
<path fill-rule="evenodd" clip-rule="evenodd" d="M36.2155 31.8657C37.1287 31.945 38.0419 31.3899 38.6127 30.6861C39.174 29.9625 39.5449 28.991 39.4498 27.9998C38.6412 28.0394 37.6424 28.5549 37.0716 29.2785C36.5484 29.903 36.1013 30.9141 36.2155 31.8657ZM47.0791 44.633V29.1793H52.644C55.5168 29.1793 57.524 31.2411 57.524 34.2545C57.524 37.2679 55.4788 39.3496 52.5679 39.3496H49.3811V44.633H47.0791ZM39.4402 32.0538C38.6357 32.0055 37.9016 32.3059 37.3086 32.5485C36.9271 32.7046 36.6039 32.8369 36.3581 32.8369C36.0822 32.8369 35.7458 32.6976 35.368 32.5412C34.873 32.3363 34.307 32.102 33.7136 32.1132C32.3532 32.1331 31.088 32.936 30.3936 34.2147C28.9667 36.7722 30.0226 40.5588 31.402 42.6404C32.0774 43.6713 32.886 44.8014 33.9514 44.7617C34.4201 44.7433 34.7573 44.5942 35.1062 44.4399C35.5079 44.2623 35.9253 44.0777 36.5769 44.0777C37.2059 44.0777 37.605 44.2575 37.9881 44.43C38.3523 44.594 38.7021 44.7515 39.2214 44.7419C40.3249 44.7221 41.0193 43.711 41.6947 42.6801C42.4236 41.5736 42.7439 40.4938 42.7925 40.3299L42.7982 40.311C42.7971 40.3097 42.7881 40.3054 42.7722 40.2979C42.5285 40.1816 40.6662 39.2932 40.6483 36.9109C40.6304 34.9113 42.1255 33.8982 42.3608 33.7387L42.3608 33.7387C42.3752 33.729 42.3848 33.7225 42.3892 33.7191C41.4379 32.252 39.9539 32.0934 39.4402 32.0538ZM61.7288 44.7521C63.1747 44.7521 64.516 43.9889 65.1248 42.7795H65.1724V44.6332H67.3032V36.941C67.3032 34.7107 65.5909 33.2733 62.9559 33.2733C60.5111 33.2733 58.7037 34.7305 58.6371 36.7328H60.7109C60.8821 35.7812 61.7288 35.1567 62.8893 35.1567C64.2972 35.1567 65.0868 35.8407 65.0868 37.0996V37.9521L62.2139 38.1305C59.5408 38.299 58.0949 39.439 58.0949 41.4215C58.0949 43.4238 59.5884 44.7521 61.7288 44.7521ZM62.3469 42.918C61.1198 42.918 60.3398 42.3034 60.3398 41.3617C60.3398 40.3903 61.0913 39.8253 62.5277 39.736L65.0866 39.5675V40.4398C65.0866 41.8871 63.907 42.918 62.3469 42.918ZM74.3711 45.2377C73.4483 47.9439 72.3924 48.836 70.1474 48.836C69.9762 48.836 69.4054 48.8162 69.2723 48.7765V46.9229C69.4149 46.9427 69.7669 46.9625 69.9477 46.9625C70.9655 46.9625 71.5363 46.5164 71.8883 45.3567L72.0975 44.6727L68.1973 33.4219H70.604L73.3152 42.5514H73.3627L76.0739 33.4219H78.414L74.3711 45.2377ZM49.3809 31.2018H52.035C54.0326 31.2018 55.1742 32.312 55.1742 34.2647C55.1742 36.2175 54.0326 37.3377 52.0255 37.3377H49.3809V31.2018Z" fill="black"/>
</g>
<defs>
<filter id="filter0_d_353_4498" x="0" y="-6" width="108" height="88" filterUnits="userSpaceOnUse" color-interpolation-filters="sRGB">
<feFlood flood-opacity="0" result="BackgroundImageFix"/>
<feColorMatrix in="SourceAlpha" type="matrix" values="0 0 0 0 0 0 0 0 0 0 0 0 0 0 0 0 0 0 127 0" result="hardAlpha"/>
<feOffset/>
<feGaussianBlur stdDeviation="10"/>
<feComposite in2="hardAlpha" operator="out"/>
<feColorMatrix type="matrix" values="0 0 0 0 0 0 0 0 0 0 0 0 0 0 0 0 0 0 0.07 0"/>
<feBlend mode="normal" in2="BackgroundImageFix" result="effect1_dropShadow_353_4498"/>
<feBlend mode="normal" in="SourceGraphic" in2="effect1_dropShadow_353_4498" result="shape"/>
</filter>
</defs>
</svg>
