<svg width="108" height="82" viewBox="0 0 108 82" fill="none" xmlns="http://www.w3.org/2000/svg">
<g filter="url(#filter0_d_353_4628)">
<rect x="20" y="14" width="68" height="48" rx="15.875" fill="white"/>
<path fill-rule="evenodd" clip-rule="evenodd" d="M52.1156 45.5164V39.4745H55.1449C56.3862 39.4745 57.4339 39.0463 58.288 38.2019L58.493 37.9878C60.0532 36.2395 59.9507 33.5159 58.288 31.8983C57.4567 31.042 56.3179 30.5782 55.1449 30.6019H50.2821V45.5164H52.1156ZM52.1159 37.643V32.4336H55.1911C55.8518 32.4336 56.4782 32.6953 56.9452 33.171C57.9361 34.1701 57.9589 35.8352 57.0022 36.8699C56.5352 37.3813 55.8745 37.6668 55.1911 37.643H52.1159ZM67.0455 36.1086C66.2598 35.3593 65.1893 34.9787 63.8341 34.9787C62.0917 34.9787 60.782 35.6447 59.9165 36.9649L61.5337 38.0234C62.1258 37.1195 62.9344 36.6676 63.9593 36.6676C64.6085 36.6676 65.2348 36.9173 65.7245 37.3693C66.2028 37.7975 66.4761 38.4159 66.4761 39.0701V39.5101C65.7701 39.1057 64.8818 38.8917 63.7885 38.8917C62.513 38.8917 61.4881 39.2009 60.7251 39.8313C59.9621 40.4616 59.5749 41.2942 59.5749 42.3527C59.5521 43.3161 59.9507 44.2319 60.6568 44.8503C61.3742 45.5164 62.2853 45.8494 63.3558 45.8494C64.6199 45.8494 65.622 45.2666 66.385 44.101H66.4647V45.5164H68.2185V39.2247C68.2185 37.9045 67.8313 36.8579 67.0455 36.1086ZM62.0692 43.6374C61.6934 43.3519 61.4656 42.8881 61.4656 42.3886C61.4656 41.8296 61.7161 41.3657 62.2059 40.997C62.7071 40.6283 63.3335 40.438 64.0739 40.438C65.099 40.4261 65.8963 40.664 66.4658 41.1397C66.4658 41.9485 66.1582 42.6502 65.5546 43.2449C65.0079 43.8158 64.2675 44.1369 63.493 44.1369C62.9804 44.1488 62.4793 43.9704 62.0692 43.6374ZM72.1589 50.0005L78.2858 35.312H76.2928L73.4572 42.6384H73.423L70.519 35.312H68.5261L72.5461 44.8625L70.2685 50.0005H72.1589Z" fill="#3C4043"/>
<path d="M45.7857 38.1659C45.7857 37.5831 45.7402 37.0003 45.6491 36.4294H37.9165V39.7239H42.3465C42.1643 40.7825 41.5721 41.734 40.7066 42.3286V44.4695H43.3487C44.8975 42.9828 45.7857 40.7825 45.7857 38.1659Z" fill="#4285F4"/>
<path d="M37.9169 46.5392C40.1262 46.5392 41.9939 45.778 43.3491 44.4697L40.707 42.3289C39.9668 42.8522 39.0215 43.1496 37.9169 43.1496C35.7759 43.1496 33.9652 41.6391 33.3161 39.6172H30.5943V41.8294C31.9837 44.7195 34.8193 46.5392 37.9169 46.5392Z" fill="#34A853"/>
<path d="M33.3163 39.6174C32.9746 38.5589 32.9746 37.4052 33.3163 36.3348V34.1345H30.5941C29.421 36.5489 29.421 39.4034 30.5941 41.8177L33.3163 39.6174Z" fill="#FBBC04"/>
<path d="M37.9169 32.802C39.0899 32.7782 40.2173 33.2421 41.06 34.0865L43.406 31.6365C41.9141 30.1855 39.9554 29.3886 37.9169 29.4124C34.8193 29.4124 31.9837 31.244 30.5943 34.1341L33.3161 36.3463C33.9652 34.3125 35.7759 32.802 37.9169 32.802Z" fill="#EA4335"/>
</g>
<defs>
<filter id="filter0_d_353_4628" x="0" y="-6" width="108" height="88" filterUnits="userSpaceOnUse" color-interpolation-filters="sRGB">
<feFlood flood-opacity="0" result="BackgroundImageFix"/>
<feColorMatrix in="SourceAlpha" type="matrix" values="0 0 0 0 0 0 0 0 0 0 0 0 0 0 0 0 0 0 127 0" result="hardAlpha"/>
<feOffset/>
<feGaussianBlur stdDeviation="10"/>
<feComposite in2="hardAlpha" operator="out"/>
<feColorMatrix type="matrix" values="0 0 0 0 0 0 0 0 0 0 0 0 0 0 0 0 0 0 0.07 0"/>
<feBlend mode="normal" in2="BackgroundImageFix" result="effect1_dropShadow_353_4628"/>
<feBlend mode="normal" in="SourceGraphic" in2="effect1_dropShadow_353_4628" result="shape"/>
</filter>
</defs>
</svg>
