<svg width="108" height="82" viewBox="0 0 108 82" fill="none" xmlns="http://www.w3.org/2000/svg">
<g filter="url(#filter0_d_353_4479)">
<rect x="20" y="14" width="68" height="48" rx="15.875" fill="white"/>
<path fill-rule="evenodd" clip-rule="evenodd" d="M54.4857 48.3139C52.1706 50.3704 49.1676 51.6119 45.8862 51.6119C38.5642 51.6119 32.6286 45.4308 32.6286 37.806C32.6286 30.1811 38.5642 24 45.8862 24C49.1677 24 52.1707 25.2415 54.4857 27.2981C56.8008 25.2415 59.8038 24 63.0852 24C70.4072 24 76.3428 30.1812 76.3428 37.806C76.3428 45.4308 70.4072 51.612 63.0852 51.612C59.8038 51.612 56.8007 50.3705 54.4857 48.3139Z" fill="#ED0006"/>
<path fill-rule="evenodd" clip-rule="evenodd" d="M54.4857 48.3139C57.3363 45.7816 59.1438 42.0136 59.1438 37.806C59.1438 33.5983 57.3363 29.8303 54.4857 27.2981C56.8008 25.2415 59.8038 24 63.0852 24C70.4072 24 76.3428 30.1811 76.3428 37.806C76.3428 45.4308 70.4072 51.6119 63.0852 51.6119C59.8038 51.6119 56.8008 50.3704 54.4857 48.3139Z" fill="#F9A000"/>
<path fill-rule="evenodd" clip-rule="evenodd" d="M54.4858 48.3141C57.3363 45.7818 59.1438 42.0138 59.1438 37.8062C59.1438 33.5986 57.3363 29.8306 54.4858 27.2983C51.6352 29.8306 49.8277 33.5986 49.8277 37.8062C49.8277 42.0138 51.6352 45.7818 54.4858 48.3141Z" fill="#FF5E00"/>
</g>
<defs>
<filter id="filter0_d_353_4479" x="0" y="-6" width="108" height="88" filterUnits="userSpaceOnUse" color-interpolation-filters="sRGB">
<feFlood flood-opacity="0" result="BackgroundImageFix"/>
<feColorMatrix in="SourceAlpha" type="matrix" values="0 0 0 0 0 0 0 0 0 0 0 0 0 0 0 0 0 0 127 0" result="hardAlpha"/>
<feOffset/>
<feGaussianBlur stdDeviation="10"/>
<feComposite in2="hardAlpha" operator="out"/>
<feColorMatrix type="matrix" values="0 0 0 0 0 0 0 0 0 0 0 0 0 0 0 0 0 0 0.07 0"/>
<feBlend mode="normal" in2="BackgroundImageFix" result="effect1_dropShadow_353_4479"/>
<feBlend mode="normal" in="SourceGraphic" in2="effect1_dropShadow_353_4479" result="shape"/>
</filter>
</defs>
</svg>
