<svg width="88" height="82" viewBox="0 0 88 82" fill="none" xmlns="http://www.w3.org/2000/svg">
<g filter="url(#filter0_d_353_4587)">
<rect y="14" width="68" height="48" rx="15.875" fill="white"/>
<path fill-rule="evenodd" clip-rule="evenodd" d="M19.2343 44.4819H16.212C16.0051 44.4819 15.8292 44.6367 15.797 44.8468L14.5746 52.8249C14.5503 52.9824 14.6687 53.1243 14.8238 53.1243H16.2667C16.4736 53.1243 16.6495 52.9695 16.6817 52.759L17.0114 50.6072C17.0432 50.3965 17.2195 50.2419 17.4259 50.2419H18.3827C20.3736 50.2419 21.5226 49.2502 21.8228 47.2849C21.958 46.4251 21.8285 45.7495 21.4373 45.2762C21.0078 44.7569 20.2458 44.4819 19.2343 44.4819ZM19.583 47.3958C19.4177 48.5123 18.5891 48.5123 17.7879 48.5123H17.3318L17.6518 46.4272C17.6708 46.3013 17.7768 46.2085 17.9006 46.2085H18.1096C18.6554 46.2085 19.1703 46.2085 19.4363 46.5287C19.5948 46.7198 19.6435 47.0036 19.583 47.3958ZM28.2688 47.36H26.8215C26.6981 47.36 26.5916 47.4529 26.5726 47.579L26.5086 47.9956L26.4073 47.8447C26.094 47.3765 25.3954 47.22 24.698 47.22C23.0985 47.22 21.7326 48.467 21.4665 50.2163C21.3283 51.0887 21.5248 51.923 22.0056 52.5049C22.4468 53.0398 23.0779 53.2628 23.8286 53.2628C25.1173 53.2628 25.832 52.4097 25.832 52.4097L25.7674 52.8238C25.7431 52.9822 25.8615 53.1241 26.0157 53.1241H27.3195C27.5268 53.1241 27.7017 52.9693 27.7344 52.7588L28.5167 47.6594C28.5414 47.5026 28.4234 47.36 28.2688 47.36ZM26.2513 50.2598C26.1116 51.111 25.4553 51.6824 24.6185 51.6824C24.1982 51.6824 23.8622 51.5436 23.6466 51.2807C23.4327 51.0196 23.3513 50.6478 23.4194 50.2339C23.5499 49.3899 24.2172 48.8 25.0414 48.8C25.4523 48.8 25.7864 48.9405 26.0065 49.2057C26.227 49.4737 26.3145 49.8476 26.2513 50.2598ZM34.5226 47.3598H35.9771C36.1807 47.3598 36.2996 47.595 36.1838 47.767L31.3465 54.9548C31.2682 55.0712 31.1391 55.1405 31.0013 55.1405H29.5486C29.3441 55.1405 29.2247 54.9034 29.3431 54.731L30.8493 52.5424L29.2474 47.7028C29.192 47.5346 29.3126 47.3598 29.4865 47.3598H30.9156C31.1013 47.3598 31.2651 47.4853 31.3187 47.6683L32.1688 50.5912L34.1749 47.5495C34.2534 47.4308 34.3839 47.3598 34.5226 47.3598Z" fill="#253B80"/>
<path fill-rule="evenodd" clip-rule="evenodd" d="M50.2917 52.8248L51.5321 44.7008C51.5511 44.5747 51.6573 44.4819 51.7806 44.4814H53.177C53.3312 44.4814 53.4496 44.6238 53.4253 44.7812L52.2021 52.7589C52.1702 52.9695 51.9943 53.1242 51.7871 53.1242H50.54C50.3858 53.1242 50.2674 52.9823 50.2917 52.8248ZM40.7924 44.4819H37.7695C37.5631 44.4819 37.3872 44.6366 37.3549 44.8467L36.1326 52.8248C36.1082 52.9823 36.2266 53.1242 36.381 53.1242H37.9321C38.0762 53.1242 38.1996 53.016 38.2221 52.8686L38.5689 50.6071C38.6008 50.3964 38.7771 50.2419 38.9835 50.2419H39.9398C41.9311 50.2419 43.0798 49.2501 43.3803 47.2848C43.5158 46.425 43.3856 45.7494 42.9945 45.2762C42.5653 44.7568 41.8039 44.4819 40.7924 44.4819ZM41.1411 47.3958C40.9762 48.5122 40.1475 48.5122 39.3458 48.5122H38.8902L39.2107 46.4271C39.2297 46.3012 39.3348 46.2084 39.4589 46.2084H39.668C40.2134 46.2084 40.7288 46.2084 40.9946 46.5286C41.1533 46.7198 41.2016 47.0036 41.1411 47.3958ZM49.8261 47.36H48.3797C48.2554 47.36 48.1499 47.4528 48.1313 47.5789L48.0673 47.9956L47.9656 47.8446C47.6523 47.3764 46.9541 47.22 46.2567 47.22C44.6572 47.22 43.2917 48.4669 43.0256 50.2162C42.8878 51.0886 43.0835 51.9229 43.5643 52.5048C44.0063 53.0398 44.6366 53.2627 45.3873 53.2627C46.676 53.2627 47.3905 52.4097 47.3905 52.4097L47.3261 52.8238C47.3018 52.9821 47.4202 53.124 47.5754 53.124H48.8786C49.0849 53.124 49.2608 52.9693 49.2931 52.7587L50.0758 47.6593C50.0997 47.5025 49.9813 47.36 49.8261 47.36ZM47.8088 50.2598C47.6699 51.1109 47.0128 51.6823 46.1757 51.6823C45.7563 51.6823 45.4196 51.5436 45.2039 51.2806C44.99 51.0196 44.9096 50.6478 44.9769 50.2339C45.108 49.3899 45.7745 48.8 46.5987 48.8C47.0097 48.8 47.3437 48.9404 47.564 49.2057C47.7852 49.4737 47.8728 49.8476 47.8088 50.2598Z" fill="#179BD7"/>
<path d="M30.4193 41.6281L30.7909 39.1986L29.9633 39.1788H26.0111L28.7577 21.2512C28.7661 21.197 28.7939 21.1466 28.8344 21.1108C28.8749 21.0749 28.9268 21.0552 28.9808 21.0552H35.6448C37.8572 21.0552 39.3839 21.5291 40.1811 22.4645C40.5547 22.9033 40.7928 23.3619 40.9079 23.8665C41.0286 24.396 41.0308 25.0286 40.9128 25.8002L40.9043 25.8565V26.3509L41.2781 26.5689C41.5928 26.7407 41.8428 26.9374 42.0346 27.1627C42.3544 27.5379 42.5612 28.0147 42.6485 28.5801C42.7387 29.1615 42.7089 29.8533 42.5612 30.6366C42.3906 31.5377 42.115 32.3224 41.7428 32.9645C41.4002 33.5562 40.964 34.0468 40.4461 34.4272C39.9516 34.7885 39.3641 35.0628 38.6998 35.2384C38.056 35.4108 37.3222 35.498 36.5173 35.498H35.9986C35.6279 35.498 35.2675 35.6355 34.9849 35.882C34.7014 36.1336 34.5137 36.4771 34.4562 36.8531L34.4171 37.0719L33.7607 41.3538L33.7308 41.5111C33.723 41.5609 33.7095 41.5858 33.6897 41.6026C33.6719 41.6178 33.6463 41.6281 33.6214 41.6281H30.4193Z" fill="#253B80"/>
<path d="M41.6319 25.9133C41.6121 26.0442 41.5894 26.1781 41.5638 26.3156C40.6848 30.9604 37.6783 32.565 33.8382 32.565H31.883C31.4135 32.565 31.0178 32.916 30.9445 33.3929L29.9435 39.9283L29.66 41.7807C29.6123 42.0938 29.8469 42.3761 30.1537 42.3761H33.6216C34.0323 42.3761 34.3809 42.0689 34.4456 41.6521L34.4797 41.4706L35.1327 37.2054L35.1747 36.9715C35.2385 36.5531 35.588 36.246 35.9986 36.246H36.5173C39.877 36.246 42.5072 34.8418 43.276 30.7783C43.5971 29.0808 43.4308 27.6635 42.5811 26.6666C42.324 26.366 42.0049 26.1166 41.6319 25.9133Z" fill="#179BD7"/>
<path d="M40.7122 25.5366C40.5781 25.4964 40.4394 25.4598 40.2973 25.4269C40.1545 25.3948 40.0081 25.3662 39.8576 25.3414C39.3303 25.2536 38.7528 25.2119 38.1339 25.2119H32.9107C32.7821 25.2119 32.66 25.2419 32.5506 25.296C32.3097 25.4152 32.1307 25.65 32.0874 25.9374L30.976 33.1822L30.9441 33.3936C31.0173 32.9167 31.4131 32.5657 31.8826 32.5657H33.8378C37.6779 32.5657 40.6846 30.9603 41.5634 26.3163C41.5896 26.1788 41.6117 26.0449 41.6315 25.914C41.4092 25.7926 41.1683 25.6888 40.909 25.6003C40.8452 25.5783 40.7791 25.5571 40.7122 25.5366Z" fill="#222D65"/>
<path d="M32.0874 25.9371C32.1307 25.6497 32.3099 25.4149 32.5506 25.2964C32.6608 25.2423 32.7823 25.2123 32.9108 25.2123H38.1342C38.753 25.2123 39.3306 25.254 39.8576 25.3418C40.0083 25.3666 40.1548 25.3951 40.2975 25.4273C40.4396 25.4602 40.5781 25.4968 40.7125 25.537C40.7791 25.5575 40.8452 25.5787 40.9098 25.5999C41.1691 25.6884 41.4101 25.793 41.6324 25.9137C41.8939 24.1972 41.6303 23.0285 40.7288 21.9702C39.7349 20.8052 37.9409 20.3064 35.6455 20.3064H28.9813C28.5123 20.3064 28.1125 20.6574 28.0399 21.135L25.2643 39.247C25.2095 39.6053 25.478 39.9287 25.8289 39.9287H29.9433L30.9763 33.1819L32.0874 25.9371Z" fill="#253B80"/>
</g>
<defs>
<filter id="filter0_d_353_4587" x="-20" y="-6" width="108" height="88" filterUnits="userSpaceOnUse" color-interpolation-filters="sRGB">
<feFlood flood-opacity="0" result="BackgroundImageFix"/>
<feColorMatrix in="SourceAlpha" type="matrix" values="0 0 0 0 0 0 0 0 0 0 0 0 0 0 0 0 0 0 127 0" result="hardAlpha"/>
<feOffset/>
<feGaussianBlur stdDeviation="10"/>
<feComposite in2="hardAlpha" operator="out"/>
<feColorMatrix type="matrix" values="0 0 0 0 0 0 0 0 0 0 0 0 0 0 0 0 0 0 0.07 0"/>
<feBlend mode="normal" in2="BackgroundImageFix" result="effect1_dropShadow_353_4587"/>
<feBlend mode="normal" in="SourceGraphic" in2="effect1_dropShadow_353_4587" result="shape"/>
</filter>
</defs>
</svg>
